<svg xmlns="http://www.w3.org/2000/svg" xmlns:xlink="http://www.w3.org/1999/xlink" width="787" height="728" fill="none" xmlns:v="https://vecta.io/nano"><g clip-path="url(#A)"><path d="M533.616 172.945h-4V63.4a63.4 63.4 0 0 0-63.4-63.4H234.129a63.4 63.4 0 0 0-63.4 63.4v600.974a63.4 63.4 0 0 0 18.569 44.831c11.89 11.889 28.016 18.569 44.831 18.569h232.087c16.814 0 32.94-6.68 44.83-18.569a63.4 63.4 0 0 0 18.57-44.831V250.921h4v-77.976z" fill="#e6e6e6"/><path d="M468.773 16.492h-30.295c1.394 3.416 1.926 7.122 1.55 10.792a22.49 22.49 0 0 1-3.707 10.253c-2.058 3.062-4.837 5.571-8.093 7.306s-6.889 2.642-10.578 2.642H284.691c-3.689 0-7.321-.908-10.577-2.643a22.5 22.5 0 0 1-11.799-17.557 22.5 22.5 0 0 1 1.549-10.791h-28.3c-12.558 0-24.601 4.988-33.48 13.868s-13.868 20.923-13.868 33.48v600.089c0 12.558 4.988 24.601 13.868 33.48s20.922 13.868 33.48 13.868h233.2a47.35 47.35 0 0 0 47.348-47.348h0V63.84a47.35 47.35 0 0 0-47.348-47.348h.009z" fill="#fff"/><g fill="#ccc"><path d="M496.877 487.819H217.258c-1.373-.002-2.689-.548-3.66-1.519a5.19 5.19 0 0 1-1.518-3.659V413.28a5.19 5.19 0 0 1 1.518-3.66 5.18 5.18 0 0 1 3.66-1.518h279.619a5.18 5.18 0 0 1 3.66 1.518c.97.971 1.517 2.287 1.518 3.66v69.362c-.002 1.372-.548 2.688-1.519 3.659s-2.286 1.516-3.659 1.518h0zm-279.619-77.646a3.11 3.11 0 0 0-2.196.91c-.582.583-.91 1.373-.911 2.197v69.362c.001.823.329 1.613.911 2.196s1.372.91 2.196.911h279.619a3.11 3.11 0 0 0 3.107-3.107V413.28a3.11 3.11 0 0 0-.911-2.197c-.582-.582-1.372-.91-2.196-.91H217.258z"/><use xlink:href="#C"/></g><g fill="#e6e6e6"><path d="M303.732 433.461a3.62 3.62 0 0 0-1.406.259c-.446.178-.853.444-1.196.781a3.63 3.63 0 0 0-.801 1.184c-.186.444-.282.92-.282 1.401s.096.957.282 1.401.458.846.801 1.183a3.63 3.63 0 0 0 1.196.782 3.62 3.62 0 0 0 1.406.258h170.883c.477.009.951-.076 1.394-.25a3.62 3.62 0 0 0 2-1.93c.19-.437.291-.908.299-1.384a3.61 3.61 0 0 0-.254-1.394c-.175-.443-.436-.848-.768-1.19s-.729-.616-1.167-.804-.908-.29-1.385-.297h-171-.002zm0 21.75c-.961 0-1.883.382-2.563 1.062s-1.062 1.602-1.062 2.563.382 1.883 1.062 2.563 1.602 1.062 2.563 1.062h170.883c.477.009.951-.076 1.395-.25a3.62 3.62 0 0 0 1.192-.766 3.63 3.63 0 0 0 1.107-2.549c.007-.477-.079-.95-.254-1.394a3.62 3.62 0 0 0-.769-1.19 3.61 3.61 0 0 0-1.166-.804 3.63 3.63 0 0 0-1.386-.296h-171l-.002-.001z"/></g><g fill="#ccc"><path d="M496.877 603.811H217.258c-1.373-.002-2.689-.548-3.66-1.519s-1.516-2.286-1.518-3.659v-69.361a5.19 5.19 0 0 1 1.518-3.66 5.18 5.18 0 0 1 3.66-1.518h279.619a5.18 5.18 0 0 1 3.66 1.518c.97.971 1.517 2.287 1.518 3.66v69.362c-.002 1.372-.548 2.688-1.519 3.659s-2.286 1.516-3.659 1.518h0zm-279.619-77.646a3.11 3.11 0 0 0-3.107 3.107v69.362c.001.824.329 1.613.911 2.196s1.372.91 2.196.911h279.619a3.11 3.11 0 0 0 3.107-3.107v-69.362c-.001-.824-.328-1.614-.911-2.196s-1.372-.91-2.196-.911H217.258zm36.246 59.534c12.011 0 21.748-9.737 21.748-21.748s-9.737-21.748-21.748-21.748-21.748 9.737-21.748 21.748 9.737 21.748 21.748 21.748z"/></g><g fill="#e6e6e6"><path d="M303.732 549.453c-.961 0-1.883.382-2.563 1.062s-1.062 1.602-1.062 2.563a3.62 3.62 0 0 0 1.062 2.563c.68.68 1.602 1.062 2.563 1.062h170.883c.477.009.951-.076 1.395-.25a3.62 3.62 0 0 0 1.192-.766 3.63 3.63 0 0 0 .807-1.164c.19-.437.292-.908.3-1.385a3.65 3.65 0 0 0-.254-1.393c-.176-.444-.437-.848-.769-1.19a3.63 3.63 0 0 0-2.552-1.101h-171l-.002-.001zm0 21.742c-.961 0-1.883.382-2.563 1.062s-1.062 1.602-1.062 2.563.382 1.884 1.062 2.564a3.63 3.63 0 0 0 2.563 1.061h170.883c.477.009.951-.076 1.395-.25a3.62 3.62 0 0 0 1.192-.766 3.63 3.63 0 0 0 .807-1.164c.19-.437.292-.908.3-1.385a3.65 3.65 0 0 0-.254-1.393c-.176-.444-.437-.848-.769-1.19a3.63 3.63 0 0 0-1.166-.805 3.65 3.65 0 0 0-1.386-.296h-171l-.002-.001z"/></g><path d="M351.183 343.884a98.34 98.34 0 0 1-98.384-98.3v-.082l.012-.629c.3-53.879 44.432-97.756 98.372-97.756 26.093-.001 51.118 10.363 69.569 28.812s28.819 43.474 28.82 69.567a98.38 98.38 0 0 1-98.378 98.389h-.011v-.001zm0-194.7a96.52 96.52 0 0 0-96.3 95.749c-.011.22-.011.4-.011.564a96.32 96.32 0 0 0 59.455 89.001c17.6 7.293 36.969 9.202 55.655 5.487a96.33 96.33 0 0 0 49.323-26.36c13.472-13.47 22.647-30.634 26.365-49.319s1.811-38.054-5.479-55.656a96.33 96.33 0 0 0-35.478-43.231 96.32 96.32 0 0 0-53.516-16.235h-.014z" fill="#ccc"/><path d="M638.291 156.49c.001.963-.096 1.924-.289 2.868-2.633 1.116-5.464 1.692-8.325 1.692a21.34 21.34 0 0 1-8.325-1.692 14.39 14.39 0 0 1-.289-2.868c0-5.006 2.549-9.237 6.06-10.651-1.401-.59-2.556-1.647-3.268-2.991a6.59 6.59 0 0 1 1.65-8.179 6.59 6.59 0 0 1 8.344 0 6.59 6.59 0 0 1 1.65 8.179c-.712 1.344-1.867 2.401-3.268 2.991 3.512 1.414 6.06 5.645 6.06 10.651z" fill="#0093ed"/><path d="M75.615 370.891l82.121 82.769h38.77v1.3h-39.313l-.191-.193-82.312-82.963.925-.913z" fill="#ccc"/><path d="M48.427 386.139a35.25 35.25 0 0 1-13.488-2.677 35.24 35.24 0 0 1-19.081-19.065c-1.773-4.275-2.686-8.858-2.688-13.486v-.029-.225a35.26 35.26 0 0 1 21.92-32.412c6.446-2.634 13.528-3.301 20.352-1.915s13.086 4.761 17.994 9.701a35.26 35.26 0 0 1 7.542 38.395c-2.675 6.429-7.194 11.922-12.987 15.786a35.25 35.25 0 0 1-19.564 5.927h0zm0-69.773a34.59 34.59 0 0 0-34.51 34.313v.2a34.52 34.52 0 0 0 5.816 19.179c3.792 5.677 9.183 10.102 15.491 12.715a34.51 34.51 0 0 0 19.944 1.966 34.52 34.52 0 0 0 17.675-9.446c4.828-4.827 8.116-10.978 9.448-17.674a34.52 34.52 0 0 0-1.964-19.945c-2.613-6.308-7.037-11.699-12.714-15.492a34.52 34.52 0 0 0-19.178-5.818l-.009.002z" fill="#3f3d56"/><path d="M75.615 494.07l82.121 82.769h38.77v1.3h-39.313l-.191-.193-82.312-82.962.925-.914z" fill="#ccc"/><path d="M48.427 437.891a35.23 35.23 0 0 0-13.488 2.677c-4.276 1.769-8.163 4.363-11.437 7.635a35.24 35.24 0 0 0-10.332 24.916v.029.225a35.26 35.26 0 0 0 21.92 32.412c6.446 2.634 13.528 3.3 20.352 1.915s13.086-4.762 17.994-9.701a35.26 35.26 0 0 0 7.542-38.395 35.26 35.26 0 0 0-12.987-15.787c-5.793-3.864-12.601-5.926-19.564-5.926h0zm0 69.773a34.59 34.59 0 0 1-34.51-34.313v-.2a34.52 34.52 0 0 1 5.815-19.18c3.793-5.677 9.184-10.102 15.491-12.716a34.52 34.52 0 0 1 19.945-1.965 34.51 34.51 0 0 1 17.676 9.447c4.828 4.827 8.116 10.978 9.448 17.675a34.52 34.52 0 0 1-14.68 35.437 34.53 34.53 0 0 1-19.179 5.816l-.005-.001z" fill="#3f3d56"/><path d="M59.356 367.129v-18.746h-3.758v18.746h3.758z" fill="#ccc"/><g fill="#0093ed"><path d="M50.309 367.134v-32.493h-3.758v32.493h3.758zm-9.048-.003v-24.397h-3.758v24.397h3.758z"/><use xlink:href="#D" opacity=".8"/><path opacity=".4" d="M59.543 477.083c2.174 0 3.936-1.762 3.936-3.936s-1.762-3.936-3.936-3.936-3.936 1.762-3.936 3.936 1.762 3.936 3.936 3.936z"/><path d="M621.987 521.269c-.333.148-.593.423-.724.764a1.38 1.38 0 0 0 .027 1.052l6.531 14.666c.149.333.423.593.764.724s.719.121 1.052-.027l25.561-11.382a1.38 1.38 0 0 0 .724-.764c.131-.341.121-.719-.027-1.053l-6.53-14.666c-.149-.332-.424-.593-.765-.724a1.38 1.38 0 0 0-1.052.027l-25.561 11.383z"/></g><g fill="#fff"><path d="M647.344 516.757l-20.114 8.957c-.111.05-.238.053-.351.009s-.205-.13-.255-.241a.46.46 0 0 1-.009-.351c.043-.114.13-.206.242-.255l20.113-8.957c.111-.049.237-.052.351-.009a.46.46 0 0 1 .264.593c-.044.113-.131.205-.242.255l.001-.001zm1.493 3.352l-20.114 8.957c-.111.049-.237.052-.351.009a.46.46 0 0 1-.264-.593c.044-.113.131-.205.242-.255l20.113-8.956a.46.46 0 0 1 .351-.009c.114.043.205.13.255.241a.46.46 0 0 1 .009.351c-.044.114-.13.206-.242.255h.001zm1.493 3.352l-20.114 8.956c-.111.05-.237.053-.351.009a.46.46 0 0 1-.255-.241c-.049-.111-.052-.238-.009-.351a.46.46 0 0 1 .242-.255l20.113-8.956a.46.46 0 0 1 .606.232c.05.111.053.237.009.351a.46.46 0 0 1-.241.255h0z"/></g><path opacity=".6" d="M48.429 477.083c2.174 0 3.936-1.762 3.936-3.936s-1.762-3.936-3.936-3.936-3.936 1.762-3.936 3.936 1.762 3.936 3.936 3.936z" fill="#0093ed"/><g fill="#ffb7b7"><path d="M758.88 512.766a9.13 9.13 0 0 1-.934-3.848c-.026-1.336.241-2.661.782-3.882s1.344-2.309 2.351-3.187a9.14 9.14 0 0 1 3.479-1.893l1.757-32.425 13.56 10.035-3.748 29.253a9.19 9.19 0 0 1-5.985 10.636c-2.127.733-4.448.66-6.525-.205a9.19 9.19 0 0 1-4.741-4.487l.004.003zm-105.08 6.027c.767-1.094 1.284-2.343 1.516-3.658a9.13 9.13 0 0 0-.175-3.957c-.346-1.29-.972-2.488-1.831-3.511a9.15 9.15 0 0 0-3.146-2.406l3.263-32.308-14.949 7.827-.807 29.481a9.19 9.19 0 0 0-.036 6.528 9.18 9.18 0 0 0 4.31 4.904c1.988 1.052 4.294 1.338 6.479.803s4.098-1.852 5.376-3.703h0zm79.779 198.626h-10.68l-5.082-41.2h15.764l-.002 41.2z"/></g><path d="M736.304 713.93h-21.035c-3.553.001-6.961 1.413-9.474 3.926s-3.925 5.92-3.926 9.474v.436h34.439l-.004-13.836z" fill="#2f2e41"/><path d="M679.635 711l-10.444 2.238-13.6-39.219 15.414-3.3 8.63 40.281z" fill="#ffb7b7"/><g fill="#2f2e41"><path d="M681.569 707.023l-20.568 4.407c-1.722.369-3.353 1.073-4.803 2.073a13.41 13.41 0 0 0-3.644 3.752c-.956 1.478-1.612 3.13-1.93 4.861a13.4 13.4 0 0 0 .077 5.23l.091.426 33.675-7.215-2.898-13.534zm71.268-225.367s11.363 35.119.235 74.833l-11.327 47.573-2.811 105.263-22.937-7.363-9.345-160.557-43.041 73.057 22.654 87.5-26.052.849-28.132-94.627 24.734-88.3 4.531-21.521 91.491-16.707z"/></g><g fill="#e6e6e6"><path d="M659.974 365.023l22.814-13 39.468-2.281 27.377 14.373-11.126 76.325s21.22 30.454 13.483 50.745c-9.549 25.044-93.046 38.109-91.413 13.668 2.577-38.57 6.558-35.91 9.476-54.824 3.2-20.753-19.206-47.363-19.206-47.363l9.127-37.643z"/><path d="M741.192 371.639l2.543-11.022s10.849 1.4 18.368 22.405 20.884 65.272 20.884 65.272l-.7 16.083s5.151 5.951 1.6 8.669 6.419 6.4 1.369 10.266c-2.217 1.699-3.896 4.002-4.835 6.633a14.49 14.49 0 0 0-.458 8.196l-15.514-4.791 1.141-25.324-6.146-19.962-16.426-49.963-1.826-26.462zm-72.861 1.884l-3.456-10.689s-6.364-2.6-11.062 12.072-6.928 51.815-6.928 51.815l-9.126 44.27s-3.41 5.638-1.6 7.254-7.963 3.888-2.281 6.882-.49-.645 1.633 6.181c1.394 4.483-.036 6.839-.036 6.839l17.567-3.534 4.791-22.693 10.867-42.191-.369-56.206z"/></g><g fill="#2f2e41"><path d="M702.436 340.143c16.733 0 30.298-13.565 30.298-30.298s-13.565-30.298-30.298-30.298-30.298 13.565-30.298 30.298 13.565 30.298 30.298 30.298z"/><path d="M705.548 290.99a63.51 63.51 0 0 1 23.113-14.946c5.587-2.07 11.668-3.349 17.509-2.173s11.365 5.216 12.995 10.947c1.332 4.686-.043 9.732-2.111 14.144s-4.829 8.5-6.5 13.078c-1.706 4.669-2.219 9.69-1.493 14.607s2.67 9.576 5.653 13.552 6.913 7.144 11.431 9.217a29.86 29.86 0 0 0 14.442 2.652c-5.739.77-11.03 3.467-16.639 4.9s-12.231 1.338-16.4-2.681c-4.411-4.252-4.5-11.166-4.286-17.289l.951-27.306c.162-4.642.3-9.432-1.374-13.765s-5.652-8.126-10.3-8.087c-3.52.03-6.636 2.162-9.458 4.265s-5.811 4.347-9.317 4.659-7.509-2.282-7.247-5.792l-.969.018z"/></g><path d="M718.958 310.286c-5.908-10.807-19.458-14.779-30.266-8.871s-14.78 19.458-8.872 30.266 19.459 14.78 30.267 8.872 14.779-19.459 8.871-30.267z" fill="#ffb7b7"/><g fill="#2f2e41"><path d="M668.023 319.29h32.2l.33-4.624 1.651 4.624h4.959l.654-9.164 3.273 9.164h9.6v-.454a24.09 24.09 0 0 0-7.055-17.007c-4.511-4.511-10.628-7.048-17.008-7.056h-4.54c-6.379.008-12.496 2.545-17.007 7.056s-7.048 10.628-7.056 17.007l-.001.454z"/><path d="M715.826 335.912l11.76-11.773 1.983-26.061h-25.961l.643.642c8.942 8.93 18.595 22.035 11.575 37.192z"/></g><g fill="#e6e6e6"><path d="M769.511 727.773H1.034a1 1 0 0 1-1-1 1 1 0 0 1 1-1h768.477a1 1 0 1 1 0 2zM78.074 699.355a12.79 12.79 0 0 0 12.364-2.178c4.33-3.635 5.688-9.623 6.793-15.168l3.268-16.4-6.841 4.711c-4.92 3.388-9.95 6.884-13.356 11.79s-4.893 11.6-2.156 16.914"/></g><path d="M79.13 720.355c-.861-6.273-1.747-12.627-1.143-18.967a29.83 29.83 0 0 1 5.752-15.64 26.02 26.02 0 0 1 6.675-6.049c.668-.421 1.282.637.617 1.056-4.429 2.799-7.855 6.933-9.784 11.805-2.13 5.418-2.472 11.324-2.105 17.079.222 3.48.692 6.938 1.167 10.391.037.156.014.32-.065.46s-.209.244-.362.292c-.156.042-.323.021-.464-.059s-.244-.212-.288-.368h0z" fill="#f2f2f2"/><path d="M85.327 710.29c.89 1.352 2.113 2.452 3.551 3.194a9.43 9.43 0 0 0 4.661 1.044c4.157-.2 7.623-3.1 10.743-5.853l9.228-8.147-6.107-.292c-4.392-.21-8.9-.406-13.08.948s-8.041 4.614-8.806 8.944" fill="#e6e6e6"/><path d="M76.696 723.961c4.145-7.335 8.953-15.487 17.544-18.093a19.59 19.59 0 0 1 7.379-.761c.783.068.588 1.275-.194 1.208a18.19 18.19 0 0 0-11.776 3.115 30.61 30.61 0 0 0-8.094 8.736c-1.34 2.041-2.541 4.168-3.742 6.293-.383.679-1.505.19-1.117-.498z" fill="#f2f2f2"/><path d="M629.78 182.366a35.24 35.24 0 0 1-13.487-2.677c-4.277-1.77-8.163-4.364-11.437-7.635a35.24 35.24 0 0 1-10.333-24.916v-.029-.225a35.26 35.26 0 0 1 6.051-19.526c3.901-5.769 9.423-10.253 15.869-12.887s13.528-3.3 20.353-1.914 13.085 4.761 17.993 9.701 8.244 11.222 9.587 18.055.631 13.91-2.044 20.339-7.194 11.923-12.987 15.787a35.27 35.27 0 0 1-19.565 5.927h0zm0-69.773a34.59 34.59 0 0 0-24.31 10.06c-6.461 6.425-10.127 15.141-10.2 24.253v.2a34.52 34.52 0 0 0 5.816 19.178c3.793 5.678 9.183 10.103 15.491 12.716s13.248 3.297 19.944 1.966 12.848-4.619 17.676-9.446a34.52 34.52 0 0 0 9.448-17.675c1.332-6.696.649-13.637-1.964-19.944s-7.037-11.699-12.713-15.493a34.52 34.52 0 0 0-19.179-5.817l-.009.002z" fill="#3f3d56"/><path d="M593.597 161.43l-82.121 82.769h-38.77v1.3h39.313l.191-.193 82.312-82.962-.925-.914z" fill="#ccc"/><g clip-path="url(#B)" fill="#0093ed"><path d="M361.357 296.001c3.266 0 6.114-2.848 6.114-6.114v-14.279h4.083c2.45 0 4.082-1.634 4.082-4.083v-40.783h-48.95v40.783c0 2.45 1.633 4.083 4.082 4.083h4.083v14.279c0 3.266 2.847 6.114 6.114 6.114s6.113-2.848 6.113-6.114v-14.279h8.166v14.279c-.001 3.266 2.847 6.114 6.113 6.114zm24.476-24.476c3.266 0 6.113-2.847 6.113-6.114v-28.557c0-3.249-2.847-6.112-6.113-6.112s-6.114 2.863-6.114 6.112v28.557c0 3.266 2.847 6.114 6.114 6.114zm-69.345 0c3.267 0 6.115-2.847 6.115-6.114v-28.557c0-3.249-2.848-6.112-6.115-6.112s-6.113 2.863-6.113 6.112v28.557c0 3.266 2.847 6.114 6.113 6.114zm54.249-72.589a1.95 1.95 0 0 0-2.847 0l-5.476 5.458-.253.252c-3.246-1.626-6.886-2.438-10.94-2.446h-.06 0-.06c-4.054.008-7.694.82-10.94 2.446l-.253-.252-5.476-5.458a1.95 1.95 0 0 0-2.847 0c-.817.817-.817 2.029 0 2.846l5.296 5.297c-1.706 1.14-3.254 2.534-4.6 4.129-3.222 3.819-5.277 8.789-5.559 14.175l-.011.167a23.87 23.87 0 0 0-.025 1.105h48.95a23.87 23.87 0 0 0-.025-1.105l-.011-.167c-.282-5.386-2.338-10.356-5.56-14.175-1.345-1.595-2.894-2.989-4.6-4.129l5.297-5.297c.817-.817.817-2.029 0-2.846zm-29.78 20.591a3.06 3.06 0 0 1-3.058-3.058 3.06 3.06 0 0 1 3.058-3.058 3.06 3.06 0 0 1 3.058 3.058 3.06 3.06 0 0 1-3.058 3.058zm20.408 0a3.06 3.06 0 0 1-3.059-3.058 3.06 3.06 0 0 1 3.059-3.058 3.06 3.06 0 0 1 3.058 3.058 3.06 3.06 0 0 1-3.058 3.058z"/></g></g><defs><clipPath id="A"><path fill="#fff" d="M0 0h786.714v727.778H0z"/></clipPath><clipPath id="B"><path fill="#fff" transform="translate(302.321 198.32)" d="M0 0h97.679v97.679H0z"/></clipPath><path id="C" d="M253.504 469.707c12.011 0 21.748-9.737 21.748-21.748s-9.737-21.748-21.748-21.748-21.748 9.737-21.748 21.748 9.737 21.748 21.748 21.748z"/><path id="D" d="M37.315 477.083c2.174 0 3.936-1.762 3.936-3.936s-1.762-3.936-3.936-3.936-3.936 1.762-3.936 3.936 1.762 3.936 3.936 3.936z"/></defs></svg>