<svg width="96" height="96" viewBox="0 0 96 96" fill="none" xmlns="http://www.w3.org/2000/svg">
<g opacity="0.5">
<path d="M48 8C37.3949 8.01165 27.2275 12.2297 19.7286 19.7286C12.2297 27.2275 8.01165 37.3949 8 48C7.99811 53.4513 9.12297 58.8441 11.304 63.84L8.056 83.344C7.96078 83.9168 7.99139 84.5034 8.14572 85.0632C8.30005 85.6229 8.57439 86.1424 8.94969 86.5854C9.32499 87.0285 9.79224 87.3845 10.319 87.6288C10.8457 87.8731 11.4194 87.9997 12 88C12.2211 87.9991 12.4419 87.9803 12.66 87.944L32.16 84.696C37.1554 86.8786 42.5486 88.0035 48 88C58.6087 88 68.7828 83.7857 76.2843 76.2843C83.7857 68.7828 88 58.6087 88 48C88 37.3913 83.7857 27.2172 76.2843 19.7157C68.7828 12.2143 58.6087 8 48 8ZM48 80C43.2947 79.9997 38.6486 78.9503 34.4 76.928C33.8659 76.6809 33.2845 76.5526 32.696 76.552C32.475 76.5534 32.2545 76.5708 32.036 76.604L16.86 79.132L19.392 63.956C19.5249 63.1543 19.4105 62.3311 19.064 61.596C17.0463 57.3475 15.9997 52.7032 16 48C16 41.671 17.8768 35.4841 21.393 30.2218C24.9092 24.9594 29.9069 20.8579 35.7541 18.4359C41.6014 16.0139 48.0355 15.3801 54.2429 16.6149C60.4503 17.8496 66.1521 20.8973 70.6274 25.3726C75.1027 29.8479 78.1504 35.5497 79.3851 41.7571C80.6199 47.9645 79.9862 54.3986 77.5641 60.2459C75.1421 66.0931 71.0406 71.0908 65.7782 74.607C60.5159 78.1232 54.329 80 48 80Z" fill="#E93C34"/>
<path d="M48 32C46.9391 32 45.9217 32.4214 45.1716 33.1716C44.4214 33.9217 44 34.9391 44 36V48C44 49.0609 44.4214 50.0783 45.1716 50.8284C45.9217 51.5786 46.9391 52 48 52C49.0609 52 50.0783 51.5786 50.8284 50.8284C51.5786 50.0783 52 49.0609 52 48V36C52 34.9391 51.5786 33.9217 50.8284 33.1716C50.0783 32.4214 49.0609 32 48 32Z" fill="#E93C34"/>
<path d="M50.8402 57.16C50.3743 56.698 49.802 56.3576 49.1735 56.169C48.5451 55.9803 47.8799 55.9491 47.2366 56.0782C46.5933 56.2073 45.9917 56.4926 45.4846 56.909C44.9776 57.3255 44.5808 57.8602 44.3292 58.4662C44.0776 59.0722 43.9789 59.7307 44.0419 60.3838C44.1048 61.0369 44.3275 61.6645 44.6902 62.2113C45.0529 62.758 45.5445 63.2071 46.1217 63.5191C46.699 63.831 47.3441 63.9962 48.0002 64C48.7863 63.986 49.5513 63.743 50.2013 63.3007C50.8513 62.8584 51.3581 62.236 51.6596 61.5098C51.9611 60.7837 52.0442 59.9853 51.8986 59.2127C51.7531 58.44 51.3852 57.7267 50.8402 57.16Z" fill="#E93C34"/>
</g>
</svg>
