<svg width="60" height="60" viewBox="0 0 60 60" fill="none" xmlns="http://www.w3.org/2000/svg">
<path fill-rule="evenodd" clip-rule="evenodd" d="M60 30.0473C60 45.8328 47.8463 58.7754 32.4 60V25.3489H23.6364V30.0471H27.1636V59.9622C11.9254 58.5308 0 45.6839 0 30.0473C0 13.4527 13.4315 0 30 0C46.5685 0 60 13.4527 60 30.0473ZM30 10.471C19.2054 10.471 10.4545 19.2357 10.4545 30.0473C10.4545 37.9331 15.1099 44.73 21.8182 47.8311V52.7491C12.5406 49.3942 5.90909 40.4964 5.90909 30.0473C5.90909 16.7214 16.695 5.91842 30 5.91842C43.305 5.91842 54.0909 16.7214 54.0909 30.0473C54.0909 40.4964 47.4594 49.3942 38.1818 52.7491V47.8311C44.8901 44.73 49.5455 37.9331 49.5455 30.0473C49.5455 19.2357 40.7947 10.471 30 10.471Z" fill="#696C70"/>
</svg>
